<?xml version="1.0" encoding="UTF-8"?>
<svg id="Layer_1" data-name="Layer 1" xmlns="http://www.w3.org/2000/svg" viewBox="0 0 27.27 40">
  <defs>
    <style>
      .cls-1 {
        fill: #fff;
      }
    </style>
  </defs>
  <polygon class="cls-1" points="23.64 3.64 23.64 7.27 21.82 7.27 21.82 3.64 21.82 0 18.18 0 18.18 3.64 18.18 7.27 18.18 10.91 18.18 14.55 18.18 18.18 18.18 21.82 18.18 25.45 18.18 29.09 21.82 29.09 21.82 25.45 21.82 21.82 21.82 18.18 21.82 14.55 21.82 10.91 23.64 10.91 23.64 14.55 23.64 18.18 23.64 21.82 23.64 25.45 23.64 29.09 27.27 29.09 27.27 25.45 27.27 21.82 27.27 18.18 27.27 14.55 27.27 10.91 27.27 7.27 27.27 3.64 27.27 0 23.64 0 23.64 3.64"/>
  <path class="cls-1" d="M14.55,9.09c0-2.18-.96-4.12-2.47-5.45h2.47V0H0v3.64h2.47C.96,4.97,0,6.92,0,9.09h0v5.45h3.64v-5.46c0-2.01,1.63-3.63,3.64-3.63s3.63,1.62,3.64,3.62v5.47h3.64v-5.45h0Z"/>
</svg>