<?xml version="1.0" encoding="UTF-8"?>
<svg id="Layer_1" data-name="Layer 1" xmlns="http://www.w3.org/2000/svg" viewBox="0 0 23.64 40">
  <defs>
    <style>
      .cls-1 {
        fill: #fff;
      }
    </style>
  </defs>
  <polygon class="cls-1" points="20 0 20 2.73 16.36 2.73 16.36 6.36 20 6.36 20 8.18 16.36 8.18 16.36 11.82 20 11.82 20 21.82 23.64 21.82 23.64 0 20 0"/>
  <path class="cls-1" d="M14.55,10.91V0H0v14.55h14.55v-3.64ZM3.64,10.91V3.64h7.27v7.27H3.64Z"/>
  <path class="cls-1" d="M16.36,25.45c-4.02,0-7.27,3.26-7.27,7.27s3.26,7.27,7.27,7.27,7.27-3.26,7.27-7.27-3.26-7.27-7.27-7.27ZM16.36,36.36c-2.01,0-3.64-1.63-3.64-3.64s1.63-3.64,3.64-3.64,3.64,1.63,3.64,3.64-1.63,3.64-3.64,3.64Z"/>
</svg>