<?xml version="1.0" encoding="UTF-8"?>
<svg id="Layer_1" data-name="Layer 1" xmlns="http://www.w3.org/2000/svg" viewBox="0 0 33.94 40">
  <defs>
    <style>
      .cls-1 {
        fill: #fff;
      }
    </style>
  </defs>
  <polygon class="cls-1" points="9.7 0 4.85 0 0 0 0 4.85 4.85 4.85 9.7 4.85 14.55 4.85 14.55 7.27 9.7 7.27 4.85 7.27 0 7.27 0 9.7 0 12.12 0 14.55 0 19.39 4.85 19.39 9.7 19.39 14.55 19.39 19.39 19.39 19.39 14.55 14.55 14.55 9.7 14.55 4.85 14.55 4.85 12.12 9.7 12.12 14.55 12.12 19.39 12.12 19.39 9.7 19.39 7.27 19.39 4.85 19.39 0 14.55 0 9.7 0"/>
  <polygon class="cls-1" points="29.09 24.24 29.09 19.39 29.09 14.55 29.09 12.12 33.94 12.12 33.94 7.27 29.09 7.27 29.09 4.85 29.09 0 24.24 0 24.24 4.85 24.24 9.7 24.24 14.55 24.24 19.39 24.24 24.24 24.24 29.09 29.09 29.09 29.09 24.24"/>
</svg>