<?xml version="1.0" encoding="UTF-8"?>
<svg id="Layer_1" data-name="Layer 1" xmlns="http://www.w3.org/2000/svg" viewBox="0 0 21.82 40">
  <defs>
    <style>
      .cls-1 {
        fill: #fff;
      }
    </style>
  </defs>
  <polygon class="cls-1" points="7.27 18.18 0 18.18 0 21.82 7.27 21.82 10.91 21.82 14.55 21.82 14.55 18.18 10.91 18.18 7.27 18.18"/>
  <polygon class="cls-1" points="18.18 3.64 18.18 7.27 18.18 10.91 18.18 14.55 18.18 18.18 18.18 21.82 21.82 21.82 21.82 18.18 21.82 14.55 21.82 10.91 21.82 7.27 21.82 3.64 21.82 0 18.18 0 18.18 3.64"/>
  <path class="cls-1" d="M7.27,0C3.26,0,0,3.26,0,7.27s3.26,7.27,7.27,7.27,7.27-3.26,7.27-7.27S11.29,0,7.27,0ZM7.27,10.91c-2.01,0-3.64-1.63-3.64-3.64s1.63-3.64,3.64-3.64,3.64,1.63,3.64,3.64-1.63,3.64-3.64,3.64Z"/>
</svg>