<?xml version="1.0" encoding="UTF-8"?>
<svg id="Layer_1" data-name="Layer 1" xmlns="http://www.w3.org/2000/svg" viewBox="0 0 14.55 40">
  <defs>
    <style>
      .cls-1 {
        fill: #fff;
      }
    </style>
  </defs>
  <polygon class="cls-1" points="3.64 18.18 0 18.18 0 21.82 3.64 21.82 7.27 21.82 14.55 21.82 14.55 18.18 7.27 18.18 3.64 18.18"/>
  <path class="cls-1" d="M14.55,9.09c0-2.18-.96-4.12-2.47-5.45h2.47V0H0v3.64h2.47C.96,4.97,0,6.92,0,9.09h0v5.45h3.64v-5.46c0-2.01,1.63-3.63,3.64-3.63s3.63,1.62,3.64,3.62v5.47h3.64v-5.45h0Z"/>
  <path class="cls-1" d="M7.27,25.45C3.26,25.45,0,28.71,0,32.73s3.26,7.27,7.27,7.27,7.27-3.26,7.27-7.27-3.26-7.27-7.27-7.27ZM7.27,36.36c-2.01,0-3.64-1.63-3.64-3.64s1.63-3.64,3.64-3.64,3.64,1.63,3.64,3.64-1.63,3.64-3.64,3.64Z"/>
</svg>